<?xml version="1.0" encoding="UTF-8" standalone="no"?>
<!-- Created with Inkscape (http://www.inkscape.org/) -->

<svg
   width="195.52829mm"
   height="95.243538mm"
   viewBox="0 0 195.52829 95.243538"
   version="1.1"
   id="svg5"
   sodipodi:docname="AkysticLogo.svg"
   inkscape:version="1.3 (0e150ed6c4, 2023-07-21)"
   xmlns:inkscape="http://www.inkscape.org/namespaces/inkscape"
   xmlns:sodipodi="http://sodipodi.sourceforge.net/DTD/sodipodi-0.dtd"
   xmlns="http://www.w3.org/2000/svg"
   xmlns:svg="http://www.w3.org/2000/svg">
  <sodipodi:namedview
     id="namedview7"
     pagecolor="#777777"
     bordercolor="#eeeeee"
     borderopacity="1"
     inkscape:pageshadow="0"
     inkscape:pageopacity="0"
     inkscape:pagecheckerboard="0"
     inkscape:document-units="mm"
     showgrid="false"
     inkscape:zoom="2.1997092"
     inkscape:cx="404.82624"
     inkscape:cy="238.89521"
     inkscape:window-width="3440"
     inkscape:window-height="1377"
     inkscape:window-x="-8"
     inkscape:window-y="1072"
     inkscape:window-maximized="1"
     inkscape:current-layer="Layer-1-4"
     inkscape:showpageshadow="0"
     inkscape:deskcolor="#d1d1d1" />
  <defs
     id="defs2" />
  <g
     inkscape:label="Layer 1"
     inkscape:groupmode="layer"
     id="layer1"
     transform="translate(-6.8659446,-5.9655809)">
    <g
       id="Layer-1"
       data-name="Layer 1"
       transform="matrix(0.35277778,0,0,0.35277778,-39.514123,30.741489)">
      <clipPath
         id="cp0">
        <path
           transform="matrix(1,0,0,-1,0,595.28)"
           d="M 0,595.28 H 841.89 V 0 H 0 Z"
           id="path77" />
      </clipPath>
      <g
         id="Layer-1-4"
         data-name="Layer 1"
         transform="translate(-11.572343,-102.22258)">
        <clipPath
           id="cp0-9">
          <path
             transform="matrix(1,0,0,-1,0,595.28)"
             d="M 0,595.28 H 841.89 V 0 H 0 Z"
             id="path1665" />
        </clipPath>
        <g
           clip-path="url(#cp0-9)"
           id="g1718"
           transform="translate(0,-128.26041)">
          <path
             transform="matrix(1,0,0,-1,258.1107,405.57325)"
             d="m 0,0 h -10.863 v 160.676 h 10.672 v -55.143 c 0.117,-0.031 0.235,-0.063 0.352,-0.094 11.53,18.408 23.059,36.816 34.609,55.256 h 3.076 c -0.264,-0.448 -0.469,-0.821 -0.697,-1.18 C 27.521,144.347 17.885,129.185 8.294,113.994 8.118,113.677 7.93,113.294 7.764,112.839 7.858,112.479 7.913,112.254 8,111.948 14.763,88.207 21.571,64.48 28.377,40.752 32.226,27.332 36.082,13.914 39.934,0.494 39.967,0.378 39.974,0.255 40.008,0.041 H 28.704 C 19.199,33.021 9.688,66.025 0.177,99.028 0.118,99.021 0.059,99.014 0,99.007 Z"
             fill="#ffffff"
             id="path1668" />
          <path
             transform="matrix(1,0,0,-1,195.0744,363.70964)"
             d="m 0,0 c -5.902,26.835 -11.782,53.568 -17.661,80.301 -0.088,0.001 -0.176,0.002 -0.263,0.003 C -23.721,53.555 -29.518,26.806 -35.328,0 Z M -11.414,121.667 C 1.963,60.595 15.341,-0.477 28.736,-61.631 H 13.329 c -4.3,19.582 -8.611,39.219 -12.936,58.923 h -36.449 c -4.229,-19.557 -8.476,-39.2 -12.737,-58.908 h -3.238 c 13.427,61.148 26.841,122.233 40.254,183.318 0.121,-0.012 0.242,-0.023 0.363,-0.035"
             fill="#ffffff"
             id="path1670" />
          <path
             transform="matrix(1,0,0,-1,459.6799,292.62483)"
             d="m 0,0 c -0.529,0.166 -1.098,0.345 -1.48,0.466 1.308,2.438 2.842,4.707 3.802,7.198 3.192,8.286 1.99,16.102 -3.358,23.132 -5.986,7.869 -14.054,12.355 -23.801,13.849 -4.097,0.628 -8.198,0.892 -12.3,10e-4 -6.766,-1.468 -11.739,-5.392 -15.195,-11.273 -2.773,-4.718 -3.493,-9.931 -3.225,-15.309 0.235,-4.718 1.176,-9.255 3.733,-13.328 3.111,-4.955 7.756,-7.794 13.188,-9.537 4.442,-1.426 9.052,-1.804 13.664,-2.243 14.876,-1.416 28.941,-5.265 41.163,-14.294 6.491,-4.795 11.98,-10.525 15.295,-18.02 4.845,-10.955 2.406,-23.292 -6.276,-32.183 -5.909,-6.051 -13.171,-9.983 -20.897,-13.125 -7.493,-3.047 -15.294,-4.898 -23.338,-5.825 -7.319,-0.844 -14.647,-0.979 -21.97,-0.426 -12.72,0.959 -24.853,4.129 -36.114,10.263 -6.288,3.425 -12.004,7.588 -16.01,13.66 -4.643,7.037 -6.416,14.613 -3.499,22.815 2.041,5.738 5.856,10.26 10.385,14.184 7.49,6.493 16.338,10.381 25.745,13.146 0.196,0.058 0.328,0.097 0.667,0.161 0.492,-0.668 1.051,-1.425 1.608,-2.182 -2.797,-0.93 -5.49,-1.748 -8.127,-2.717 -8.126,-2.986 -15.506,-7.188 -21.456,-13.601 -4.911,-5.292 -8.118,-11.33 -7.607,-18.802 0.456,-6.664 3.436,-12.189 8.045,-16.887 5.409,-5.514 12.06,-9.089 19.069,-12.094 6.668,-2.859 13.611,-4.77 20.758,-5.92 6.645,-1.068 13.363,-1.41 20.067,-1.012 13.198,0.785 25.258,4.874 35.581,13.337 7.995,6.554 12.382,14.985 12.085,25.469 -0.226,7.993 -4.102,14.276 -9.901,19.511 -7.549,6.814 -16.552,10.718 -26.379,12.701 -5.419,1.093 -10.961,1.585 -16.453,2.306 -9.807,1.287 -19,4.102 -27.079,10.108 -13.804,10.263 -14.877,28.864 -4.323,41.063 5.966,6.896 13.458,10.989 22.367,12.723 4.64,0.903 9.326,1.063 13.956,0.618 C -16.242,46.839 -6.53,42.303 0.798,33.254 8.602,23.618 8.426,9.673 0.354,0.327 0.274,0.234 0.173,0.159 0,0"
             fill="#ffffff"
             id="path1672" />
          <path
             transform="matrix(1,0,0,-1,692.2538,382.18513)"
             d="M 0,0 C 1.643,-1.85 4.98,-5.548 5.043,-5.534 4.702,-6.369 4.559,-6.74 4.207,-7.571 -0.154,-17.885 -5.819,-27.344 -13.935,-35.192 c -5.476,-5.296 -11.666,-9.439 -19.102,-11.435 -10.907,-2.927 -21.25,-1.243 -31.008,4.212 -8.574,4.793 -14.981,11.888 -20.452,19.892 -8.482,12.411 -13.679,26.143 -16.345,40.891 -1.608,8.897 -2.252,17.871 -2.151,26.894 0.189,16.806 2.648,33.22 8.95,48.905 4.592,11.43 10.555,22.039 19.307,30.867 5.865,5.915 12.689,10.231 20.924,12.097 11.096,2.515 21.358,0.325 30.894,-5.581 9.132,-5.656 16.065,-13.488 21.512,-22.649 2.272,-3.822 4.215,-7.839 6.347,-11.841 -1.814,-1.71 -3.439,-3.241 -5.218,-4.917 -0.408,1.076 -0.767,2.019 -1.125,2.963 -4.157,10.96 -9.774,21.01 -18.32,29.214 -5.295,5.083 -11.295,8.98 -18.611,10.438 -8.816,1.756 -16.888,-0.209 -24.235,-5.251 -6.706,-4.602 -11.594,-10.855 -15.758,-17.731 -6.767,-11.174 -11.105,-23.276 -13.726,-36.03 -2.567,-12.486 -3.373,-25.119 -2.964,-37.828 0.495,-15.357 3.032,-30.335 8.979,-44.6 4.204,-10.085 9.577,-19.455 17.368,-27.253 5.419,-5.424 11.724,-9.33 19.38,-10.744 9.323,-1.722 17.701,0.498 25.185,6.202 7.07,5.387 12.207,12.382 16.419,20.109 2.94,5.393 5.255,11.058 7.145,16.899 C -0.402,-1.042 -0.231,-0.625 0,0"
             fill="#ffffff"
             id="path1674" />
          <path
             transform="matrix(1,0,0,-1,0,595.28)"
             d="m 552.047,348.406 h 10.646 V 189.49102 h -10.646 z"
             fill="#ffffff"
             id="path1676" />
          <path
             transform="matrix(1,0,0,-1,311.4375,247.12924)"
             d="m 0,0 h 11.112 c 6.661,-28.698 13.328,-57.424 19.996,-86.149 0.076,-0.005 0.153,-0.01 0.229,-0.015 6.581,28.719 13.162,57.437 19.743,86.16 h 2.065 c -0.64,-2.868 -1.25,-5.659 -1.886,-8.445 -3.894,-17.068 -7.797,-34.135 -11.691,-51.204 -2.026,-8.878 -4.104,-17.745 -6.008,-26.65 -0.42,-1.961 -0.272,-4.059 -0.274,-6.094 -0.011,-14.19 0.008,-28.379 0.015,-42.569 10e-4,-0.2 -0.026,-0.4 -0.044,-0.665 h -10.76 c 0,0.536 0,1.024 0,1.512 0,11.603 0.101,23.206 -0.072,34.806 -0.042,2.82 -0.888,5.649 -1.526,8.437 -5.535,24.2 -11.107,48.391 -16.67,72.585 C 2.86,-12.333 1.483,-6.377 0.113,-0.419 0.086,-0.301 0.02,-0.119 0,0"
             fill="#ffffff"
             id="path1678" />
          <path
             transform="matrix(1,0,0,-1,523.7043,382.77845)"
             d="m 0,0 h -10.768 v 133.701 h -21.874 v 1.923 h 54.235 v -1.859 H 0 Z"
             fill="#ffffff"
             id="path1680" />
          <path
             transform="matrix(1,0,0,-1,0,595.28)"
             d="m 432.98,235.049 h -13.40797 v 4.464 H 432.98 Z"
             fill="#ffffff"
             id="path1682" />
          <path
             transform="matrix(1,0,0,-1,432.0684,174.13193)"
             d="M 0,0 V -209.1 H 1.647 V 1.828 Z"
             fill="#ffffff"
             id="path1684" />
          <path
             transform="matrix(1,0,0,-1,428.7349,383.46965)"
             d="M 0,0 H 1.647 V 203.923 L 0,202.095 Z"
             fill="#ffffff"
             id="path1686" />
          <path
             transform="matrix(1,0,0,-1,425.4008,383.46965)"
             d="M 0,0 H 1.647 V 194.643 L 0,192.815 Z"
             fill="#ffffff"
             id="path1688" />
          <path
             transform="matrix(1,0,0,-1,418.7332,383.31105)"
             d="M 0,0 H 1.647 V 143.23 L 1.599,174.075 0,173.717 Z"
             fill="#ffffff"
             id="path1690" />
          <path
             transform="matrix(1,0,0,-1,422.0673,383.46965)"
             d="M 0,0 H 1.647 V 184.23 L 0,182.403 Z"
             fill="#ffffff"
             id="path1692" />
          <path
             transform="matrix(1,0,0,-1,421.2822,209.40814)"
             d="m 0,0 c 0,-0.953 -0.773,-1.726 -1.725,-1.726 -0.954,0 -1.726,0.773 -1.726,1.726 0,0.953 0.772,1.726 1.726,1.726 C -0.773,1.726 0,0.953 0,0"
             fill="#ffffff"
             id="path1694" />
          <path
             transform="matrix(1,0,0,-1,419.4119,226.01914)"
             d="m 0,0 c -0.29,0 -0.571,0.154 -0.721,0.425 -0.218,0.393 -0.744,0.858 -1.355,1.396 -2.014,1.777 -5.059,4.464 -3.717,10.37 1.663,7.318 9.981,37.583 13.126,46.354 1.923,5.362 7.5,7.659 12.013,7.154 4.654,-0.52 7.904,-3.774 8.482,-8.492 0.918,-7.502 -2.837,-10.269 -4.44,-11.451 -0.182,-0.134 -0.37,-0.272 -0.438,-0.341 -0.263,-0.263 -0.607,-0.47 -0.971,-0.688 -1.064,-0.64 -2.27,-1.365 -2.27,-3.703 0,-1.696 1.057,-4.373 2.281,-7.473 1.253,-3.174 2.673,-6.771 3.504,-10.591 1.657,-7.625 1.677,-9.547 1.677,-9.625 l -0.926,-0.818 c -0.049,0.006 -5.008,0.59 -7.682,-1.491 C 15.608,8.729 14.317,7.747 14.304,7.738 13.941,7.463 13.425,7.534 13.15,7.896 c -0.275,0.362 -0.204,0.879 0.158,1.154 0.013,0.01 1.299,0.986 4.243,3.277 2.425,1.886 6.121,1.982 7.891,1.902 -0.141,1.157 -0.522,3.616 -1.558,8.381 -0.802,3.689 -2.196,7.221 -3.426,10.336 -1.339,3.391 -2.396,6.069 -2.396,8.078 0,3.269 1.921,4.424 3.068,5.114 0.275,0.166 0.535,0.322 0.655,0.442 0.156,0.156 0.364,0.309 0.626,0.502 1.488,1.097 4.583,3.378 3.782,9.925 -0.488,3.98 -3.116,6.618 -7.03,7.055 C 15.292,64.495 10.518,62.547 8.884,57.989 5.754,49.259 -2.529,19.117 -4.186,11.826 -5.312,6.873 -2.913,4.757 -0.986,3.056 -0.261,2.417 0.365,1.864 0.72,1.223 0.94,0.825 0.796,0.323 0.398,0.103 0.272,0.033 0.135,0 0,0"
             fill="#ffffff"
             id="path1696" />
          <path
             transform="matrix(1,0,0,-1,413.1697,207.93933)"
             d="m 0,0 c -0.064,0 -0.133,-0.006 -0.204,-0.016 -1.031,-0.159 -1.773,-0.496 -2.09,-0.949 -0.204,-0.291 -0.256,-0.665 -0.161,-1.143 0.245,-1.225 1.278,-1.886 2.125,-1.886 0.181,0 0.348,0.03 0.495,0.089 1.04,0.416 0.97,2.01 0.83,2.946 C 0.957,-0.807 0.718,0 0,0 m -0.33,-5.641 v 0 c -1.539,0 -3.319,1.103 -3.74,3.21 -0.186,0.929 -0.043,1.74 0.426,2.41 0.594,0.849 1.667,1.398 3.19,1.633 C -0.301,1.635 -0.148,1.647 0,1.647 1.678,1.647 2.441,0.158 2.61,-0.63 2.613,-0.646 2.616,-0.662 2.618,-0.677 2.994,-3.12 2.34,-4.809 0.777,-5.434 0.434,-5.571 0.061,-5.641 -0.33,-5.641"
             fill="#ffffff"
             id="path1698" />
          <path
             transform="matrix(1,0,0,-1,415.092,200.33112)"
             d="m 0,0 c -0.064,0 -0.133,-0.006 -0.204,-0.017 -1.031,-0.158 -1.774,-0.495 -2.09,-0.948 -0.204,-0.291 -0.257,-0.665 -0.161,-1.143 0.244,-1.225 1.277,-1.886 2.124,-1.886 h 0.001 c 0.18,0 0.347,0.03 0.495,0.089 1.039,0.416 0.969,2.011 0.829,2.946 C 0.956,-0.807 0.717,0 0,0 m -0.33,-5.641 h -0.001 c -1.539,0 -3.318,1.103 -3.74,3.21 -0.185,0.929 -0.042,1.74 0.427,2.411 0.594,0.848 1.667,1.397 3.189,1.631 C -0.301,1.635 -0.148,1.647 0,1.647 1.678,1.647 2.44,0.158 2.609,-0.63 2.612,-0.646 2.615,-0.661 2.617,-0.677 2.993,-3.119 2.339,-4.809 0.777,-5.434 0.433,-5.571 0.061,-5.641 -0.33,-5.641"
             fill="#ffffff"
             id="path1700" />
          <path
             transform="matrix(1,0,0,-1,417.2249,192.73075)"
             d="m 0,0 c -0.064,0 -0.133,-0.006 -0.204,-0.017 -1.031,-0.158 -1.773,-0.495 -2.09,-0.948 -0.204,-0.291 -0.256,-0.665 -0.161,-1.143 0.245,-1.225 1.278,-1.886 2.125,-1.886 0.181,0 0.348,0.03 0.495,0.089 1.04,0.416 0.97,2.01 0.83,2.946 C 0.956,-0.807 0.718,0 0,0 m -0.33,-5.641 v 0 c -1.539,0 -3.319,1.103 -3.74,3.21 -0.186,0.929 -0.042,1.74 0.426,2.411 0.594,0.848 1.667,1.397 3.189,1.631 0.154,0.024 0.307,0.036 0.455,0.036 1.678,0 2.441,-1.49 2.61,-2.277 C 2.613,-0.646 2.616,-0.662 2.618,-0.677 2.994,-3.119 2.34,-4.809 0.777,-5.434 0.434,-5.571 0.062,-5.641 -0.33,-5.641"
             fill="#ffffff"
             id="path1702" />
          <path
             transform="matrix(1,0,0,-1,419.3582,184.99723)"
             d="m 0,0 c -0.064,0 -0.133,-0.006 -0.204,-0.016 -1.031,-0.159 -1.773,-0.496 -2.089,-0.948 -0.204,-0.292 -0.257,-0.666 -0.162,-1.144 0.245,-1.224 1.278,-1.886 2.125,-1.886 0.181,0 0.347,0.031 0.495,0.09 1.041,0.416 0.971,2.01 0.83,2.945 C 0.957,-0.807 0.718,0 0,0 m -0.33,-5.641 v 0 c -1.539,0 -3.318,1.103 -3.74,3.21 -0.186,0.93 -0.042,1.741 0.427,2.411 0.593,0.849 1.666,1.398 3.189,1.632 C -0.301,1.635 -0.148,1.647 0,1.647 1.679,1.647 2.441,0.158 2.61,-0.63 2.613,-0.646 2.616,-0.661 2.618,-0.677 2.995,-3.119 2.341,-4.808 0.777,-5.434 0.434,-5.571 0.061,-5.641 -0.33,-5.641"
             fill="#ffffff"
             id="path1704" />
          <path
             transform="matrix(1,0,0,-1,421.21,177.41254)"
             d="m 0,0 c -0.064,0 -0.133,-0.006 -0.204,-0.017 -1.031,-0.158 -1.774,-0.495 -2.09,-0.947 -0.204,-0.292 -0.257,-0.666 -0.161,-1.144 0.245,-1.225 1.277,-1.886 2.124,-1.886 0.181,0 0.348,0.03 0.495,0.089 1.041,0.416 0.971,2.01 0.83,2.947 C 0.956,-0.807 0.717,0 0,0 m -0.331,-5.641 v 0 c -1.539,0 -3.318,1.103 -3.739,3.21 -0.186,0.929 -0.043,1.74 0.426,2.411 0.594,0.848 1.667,1.397 3.189,1.631 C -0.301,1.635 -0.148,1.647 0,1.647 1.678,1.647 2.44,0.158 2.609,-0.63 2.612,-0.646 2.615,-0.661 2.618,-0.677 2.993,-3.12 2.339,-4.809 0.776,-5.434 0.433,-5.571 0.061,-5.641 -0.331,-5.641"
             fill="#ffffff"
             id="path1706" />
          <path
             transform="matrix(1,0,0,-1,423.978,169.66312)"
             d="m 0,0 c -0.064,0 -0.133,-0.006 -0.204,-0.016 -1.031,-0.159 -1.773,-0.496 -2.09,-0.949 -0.204,-0.291 -0.256,-0.665 -0.161,-1.143 0.245,-1.225 1.278,-1.886 2.125,-1.886 h 0.001 c 0.18,0 0.347,0.03 0.494,0.089 1.041,0.416 0.97,2.01 0.83,2.946 C 0.957,-0.807 0.718,0 0,0 M -0.329,-5.641 H -0.33 c -1.539,0 -3.318,1.103 -3.74,3.21 -0.186,0.929 -0.042,1.74 0.426,2.411 0.594,0.848 1.667,1.397 3.19,1.632 C -0.301,1.635 -0.148,1.647 0,1.647 1.678,1.647 2.441,0.158 2.61,-0.63 2.613,-0.646 2.616,-0.661 2.619,-0.677 2.994,-3.12 2.34,-4.809 0.777,-5.434 0.434,-5.571 0.062,-5.641 -0.329,-5.641"
             fill="#ffffff"
             id="path1708" />
          <path
             transform="matrix(1,0,0,-1,424.6162,200.20902)"
             d="m 0,0 c 0,-0.953 -0.773,-1.726 -1.726,-1.726 -0.953,0 -1.725,0.773 -1.725,1.726 0,0.953 0.772,1.726 1.725,1.726 C -0.773,1.726 0,0.953 0,0"
             fill="#ffffff"
             id="path1710" />
          <path
             transform="matrix(1,0,0,-1,427.9503,189.34494)"
             d="m 0,0 c 0,-0.953 -0.773,-1.726 -1.726,-1.726 -0.953,0 -1.725,0.773 -1.725,1.726 0,0.953 0.772,1.726 1.725,1.726 C -0.773,1.726 0,0.953 0,0"
             fill="#ffffff"
             id="path1712" />
          <path
             transform="matrix(1,0,0,-1,431.2839,180.59882)"
             d="m 0,0 c 0,-0.953 -0.773,-1.726 -1.726,-1.726 -0.953,0 -1.725,0.773 -1.725,1.726 0,0.953 0.772,1.726 1.725,1.726 C -0.773,1.726 0,0.953 0,0"
             fill="#ffffff"
             id="path1714" />
          <path
             transform="matrix(1,0,0,-1,434.6179,172.91175)"
             d="m 0,0 c 0,-0.953 -0.773,-1.726 -1.725,-1.726 -0.954,0 -1.726,0.773 -1.726,1.726 0,0.953 0.772,1.726 1.726,1.726 C -0.773,1.726 0,0.953 0,0"
             fill="#ffffff"
             id="path1716" />
        </g>
      </g>
    </g>
  </g>
</svg>
